<?xml version="1.0" encoding="UTF-8"?>
<svg xmlns="http://www.w3.org/2000/svg" width="131.575mm" height="32mm" version="1.1" viewBox="0 0 372.969 90.709">
  <!-- Generator: Adobe Illustrator 29.5.1, SVG Export Plug-In . SVG Version: 2.1.0 Build 141)  -->
  <g id="Schutzraum">
    <rect y="0" width="372.969" height="90.709" fill="none"/>
    <rect y="0" width="372.969" height="90.709" fill="none"/>
    <rect y="0" width="372.969" height="90.709" fill="none"/>
    <rect y="0" width="372.969" height="90.709" fill="none"/>
    <rect y="0" width="372.969" height="90.709" fill="none"/>
  </g>
  <g id="Logo">
    <g>
      <path d="M298.151,67.852h4.345v-9.113h2.323c1.75,0,2.505,1.026,2.566,2.716l.12,4.134c.03.844.121,1.659.543,2.263h4.707v-.181c-.814-.423-.935-1.599-.965-3.862-.06-4.557-.513-6.187-3.47-6.579v-.06c2.444-.513,3.591-2.444,3.591-5.311,0-3.682-2.173-5.553-5.734-5.553h-8.026v21.546ZM302.496,49.505h2.052c1.961,0,3.018.996,3.018,2.988,0,2.323-1.178,3.228-3.26,3.228h-1.81v-6.216Z" fill="#8ebae5"/>
      <path d="M234.088,46.307v15.027c0,5.764,3.349,6.941,6.88,6.941s6.88-1.448,6.88-6.941v-15.027h-4.345v15.027c0,2.143-.513,3.742-2.535,3.742s-2.535-1.599-2.535-3.742v-15.027h-4.345Z" fill="#8ebae5"/>
    </g>
    <polygon points="248.912 46.307 248.912 67.852 252.895 67.852 252.895 52.765 252.955 52.765 258.266 67.852 263.215 67.852 263.215 46.307 259.232 46.307 259.232 61.063 259.172 61.063 253.921 46.307 248.912 46.307" fill="#8ebae5"/>
    <rect x="264.332" y="46.307" width="4.345" height="21.545" fill="#8ebae5"/>
    <polygon points="268.975 46.307 273.923 67.852 279.506 67.852 284.454 46.307 279.958 46.307 276.76 62.24 276.67 62.24 273.622 46.307 268.975 46.307" fill="#8ebae5"/>
    <polygon points="284.842 46.307 284.842 67.852 297.184 67.852 297.184 64.292 289.187 64.292 289.187 58.498 296.43 58.498 296.43 54.937 289.187 54.937 289.187 49.868 296.882 49.868 296.882 46.307 284.842 46.307" fill="#8ebae5"/>
    <path d="M312.272,61.123v.875c0,3.984,1.931,6.277,6.85,6.277,4.707,0,7.483-2.052,7.483-6.609,0-2.625-.845-4.284-4.104-5.703l-3.349-1.448c-1.841-.785-2.233-1.599-2.233-2.927,0-1.267.513-2.505,2.474-2.505,1.659,0,2.354,1.177,2.354,3.199h4.164v-.604c0-4.134-2.807-5.793-6.669-5.793-4.104,0-6.668,2.142-6.668,6.336,0,3.591,1.78,5.191,5.642,6.518,2.867.996,3.863,1.72,3.863,3.682,0,1.81-1.268,2.655-2.595,2.655-2.294,0-2.867-1.297-2.867-3.319v-.634h-4.345Z" fill="#8ebae5"/>
    <rect x="327.173" y="46.307" width="4.345" height="21.545" fill="#8ebae5"/>
    <polygon points="354.088 46.307 351.07 54.635 351.01 54.635 348.174 46.307 332.088 46.307 332.088 49.868 336.795 49.868 336.795 67.852 341.141 67.852 341.141 49.868 344.806 49.868 348.867 59.373 348.867 67.852 353.213 67.852 353.213 59.373 358.796 46.307 354.088 46.307" fill="#8ebae5"/>
    <g>
      <path d="M195.917,44.347h-7.2v-21.641h11.807c3.202-.001,5.963,2.072,6.864,4.82.834,2.546.121,5.312-1.761,7.281.25.678.494,1.209.726,1.818.523,1.205,1.001,2.41,1.524,3.6l1.713,4.122h-7.301s-.058-.174-.116-.247c-.29-.638-.552-1.321-.842-1.959l-1.756-4.166c-.697-1.684-1.394-3.275-2.09-4.958.869-.024,1.519.139,2.358-.247.59-.29,1.484-1.011,1.507-2.394-.023-.685-.213-1.204-.666-1.744-.455-.502-1.113-.874-1.97-.886,0,0-2.798-.001-2.797,0v16.601Z" fill="#00549f"/>
      <path d="M271.122,22.706v21.641h-7.2v-8.824h-5.041v8.824c-1.306,0-2.714-.014-4.02,0h-3.18v-16.633h-5.036v16.633h-7.2v-16.633h-5.079v16.633h-7.417c-1.292-3.12-2.656-6.27-3.919-9.376-.145-.653-.29-1.307-.479-1.945v11.321h-7.432c-1.473-3.425-2.888-6.782-4.357-10.258-.509-1.204-.926-2.184-1.452-3.436l-.072-.164-1.144-2.685-1.638-3.835c-.144-.435-.376-.828-.522-1.263h7.415c1.524,3.701,3.062,7.359,4.659,11.002l.044.087c-.058-.421-.19-.958-.262-1.364v-6.459c.014-1.031,0-2.207,0-3.266h7.431c.094.236.146.363.218.552.871,2.046,1.699,4.078,2.57,6.11l1.945,4.427c-.044-.465-.146-.914-.204-1.364v-9.725h29.131v7.809h5.041v-7.809h7.2Z" fill="#00549f"/>
    </g>
    <path d="M292.007,36.193l2.092-9.73h.06l2.092,9.73h-4.244ZM277.58,36.193l2.091-9.73h.06l2.092,9.73h-4.243ZM296.827,22.704h-5.396l-4.516,17.059-4.516-17.059h-5.396l-5.729,21.643h4.547l1-4.577h5.761l.999,4.577h6.668l1-4.577h5.76l1,4.577h4.547l-5.729-21.643Z" fill="#8ebae5"/>
    <path d="M315.556,30.089c0-3.138-.452-7.695-6.669-7.695-6.517,0-7.333,4.647-7.333,11.195s.816,11.195,7.333,11.195c5.703,0,6.85-4.013,6.85-8.66h-4.345c0,4.647-1.147,5.462-2.716,5.462-1.871,0-2.776-1.177-2.776-7.695,0-6.095.513-8.298,2.716-8.298,1.961,0,2.595,1.358,2.595,4.496h4.345Z" fill="#8ebae5"/>
    <polygon points="316.595 44.347 320.959 44.347 320.959 34.739 326.051 34.739 326.051 44.347 330.416 44.347 330.416 22.706 326.051 22.706 326.051 30.981 320.959 30.981 320.959 22.706 316.595 22.706 316.595 44.347" fill="#8ebae5"/>
    <polygon points="331.362 22.702 331.362 44.347 343.762 44.347 343.762 40.77 335.728 40.77 335.728 34.949 343.004 34.949 343.004 31.372 335.728 31.372 335.728 26.279 343.458 26.279 343.458 22.702 331.362 22.702" fill="#8ebae5"/>
    <polygon points="344.41 22.706 344.41 44.347 348.411 44.347 348.411 29.192 348.471 29.192 353.806 44.347 358.777 44.347 358.777 22.706 354.776 22.706 354.776 37.527 354.715 37.527 349.441 22.706 344.41 22.706" fill="#8ebae5"/>
    <rect x="174.043" y="22.677" width="1.001" height="45.355" fill="#00549f"/>
    <g>
      <path d="M70.092,36.036v-1.155l-3.958,2.293.027,17.032,3.931,2.261v-1.153l-2.932-1.686-.025-15.878,2.957-1.714ZM65.452,36.213l4.64-2.636v-1.15l-4.632,2.632-9.425-5.566-.002-8.357-.995-.574.053,9.501,10.361,6.15ZM65.644,55.262l-10.513,6.093.015,8.814.998-.577-.013-7.661,9.515-5.514,4.446,2.599v-1.196l-4.448-2.558ZM33.014,61.521l-.006,10.906.995.578.011-10.908,9.517-5.515,9.371,5.643.006,9.318.99-.575-.017-9.423-10.351-6.117-10.516,6.093ZM27.395,38.596c1.944-1.502,3.924-2.999,4.91-2.499,1.153.585,1.131,3.285,1.111,5.667v.002c-1.612,1.174-3.558,2.538-4.786,1.915-.795-.403-1.057-2.739-1.235-5.085M34.142,42.139c.766-.558,1.831-1.319,2.085-1.212.397.201.448.589.485,1.205.033.544.07,1.161.655,1.431.238.111.953.457,1.847.893-.028.023-.054.044-.082.067-1.401,1.146-3.144,2.572-4.198,2.05-.777-.385-.806-2.473-.792-4.434M40.572,44.307c.6-.456,1.149-.805,1.448-.764.358.048,1.016.305,1.801.664l-.006.938c.214.112.347.18.424.22.06.031.244.125.695.357.318.164.535.37.639.74.202.723.296,1.57.744,2.107.439.525,1.261.733,1.917,1.075,1.9.987,3.804,1.966,5.699,2.959.249.131.405.144.637-.068.729-.667,1.785-.661,2.558-.033.679.55.884,1.591.473,2.396-.42.82-1.399,1.252-2.261.999-.957-.282-1.559-1.151-1.423-2.13.041-.294-.05-.403-.288-.525-2.55-1.312-5.093-2.638-7.643-3.949-.239-.123-.373-.279-.448-.535-.195-.67-.4-1.341-.64-1.997-.071-.191-.241-.394-.421-.488-.475-.249-.753-.403-.907-.497-.859-.421-1.967-.964-2.998-1.469M18.629,31.182c-.427.019-2.23-.768-4.454-1.86v.818c1.945.948,3.819,1.771,4.459,1.771.014,0,.027,0,.04,0,1.031-.064,2.003-.604,2.942-1.126,1.172-.651,2.184-1.213,3.058-.77,1.432.727,1.691,4.39,1.92,7.622.015.21.029.417.044.623-2.253,1.742-4.77,3.647-6.273,2.885-1-.508-1.098-2.388-1.169-3.76-.049-.939-.084-1.617-.349-1.974-.307-.415-2.464-1.558-4.672-2.656v.815c2.189,1.095,3.865,2.001,4.086,2.275.134.181.174.955.207,1.578.085,1.636.19,3.673,1.567,4.372,1.815.922,4.256-.809,6.669-2.665.209,2.581.519,4.657,1.596,5.203,1.487.755,3.429-.458,5.11-1.662-.003,2.206.111,4.017,1.2,4.556.265.131.542.19.829.19,1.309,0,2.806-1.224,4.155-2.328.112-.092.227-.186.342-.279,1.35.659,2.903,1.421,3.868,1.894l.007,7.547,10.418,6.148,10.686-6.002v-17.031s-10.479-6.15-10.479-6.15l-5.208,2.958c-1.184-.583-2.377-1.143-3.614-1.765-.179-.09-.35-.287-.423-.475-.248-.644-.461-1.303-.665-1.962-.078-.252-.213-.404-.452-.521-2.537-1.252-5.07-2.518-7.609-3.771-.237-.116-.328-.222-.293-.513.118-.968-.491-1.816-1.439-2.078-.856-.235-1.814.207-2.215,1.024-.393.801-.173,1.825.506,2.356.774.607,1.817.595,2.525-.075.224-.213.378-.203.626-.078,1.887.949,3.783,1.884,5.676,2.825.653.327,1.468.52,1.909,1.031.451.523.558,1.358.77,2.069.049.163.121.292.212.4.113.132.256.233.431.319,1.071.529,2.024.981,2.984,1.455l.345.171-.007.005c.357.186.716.371,1.073.558.29.15.55.23.848.073.764-.404,1.458-.287,2.178.176.642.414,1.354.719,2.047,1.078.107-.11.197-.21.293-.304.685-.67,1.715-.746,2.529-.186.734.506,1.009,1.519.647,2.388-.345.823-1.3,1.309-2.206,1.122s-1.572-.986-1.54-1.921c.013-.344-.094-.507-.389-.649-.741-.358-1.458-.766-2.202-1.119-.185-.089-.472-.132-.643-.05-.834.403-1.538.227-2.34-.2-.344-.183-.69-.364-1.035-.546l-2.64,1.499c4.192,2.17,8.383,4.34,12.57,6.518.247.128.396.158.622-.08.635-.676,1.714-.772,2.453-.268.814.553,1.107,1.571.714,2.472-.359.819-1.33,1.297-2.223,1.091-.922-.212-1.577-1.032-1.517-1.979.021-.316-.071-.449-.339-.587-4.344-2.242-8.683-4.491-13.02-6.746l-.019.011c-.473-.234-1.002-.474-2.026-.993-.287-.145-.484-.333-.512-.665-.071-.85-.539-1.365-1.309-1.715-.686-.313-1.319-.743-1.986-1.127.034-.147.069-.275.096-.405.192-.925-.295-1.821-1.194-2.2-.811-.34-1.799-.029-2.327.736-.5.725-.395,1.777.242,2.43.639.653,1.657.781,2.417.255.279-.194.471-.192.746-.022.693.424,1.414.803,2.104,1.232.172.107.362.322.384.508.111.907.633,1.398,1.415,1.837,1.102.58,1.123.538,1.432.678l-.006,5.181,5.931,3.229c.773-.822,1.813-1.003,2.602-.487.85.556,1.162,1.585.753,2.485-.4.876-1.343,1.327-2.286,1.091-1.017-.254-1.512-1.127-1.392-2.496l-5.613-3.106v.023c-.716-.314-1.331-.539-1.711-.59-.622-.084-1.37.412-2.276,1.13-1.038-.507-1.895-.923-2.167-1.048-.17-.079-.203-.321-.233-.814-.035-.594-.084-1.407-.883-1.812-.558-.282-1.319.177-2.408.958.015-2.545-.06-5.05-1.514-5.788-1.315-.667-3.162.632-5.304,2.278-.003-.047-.006-.093-.009-.14-.255-3.592-.518-7.307-2.318-8.22-1.22-.62-2.503.093-3.743.783-.868.482-1.765.982-2.632,1.035" fill="#fff"/>
      <path d="M34.014,62.097l-.011,10.907,8.131,4.678,10.774-6.145-.007-9.312-9.37-5.643-9.517,5.515ZM18.634,31.911c-.64,0-2.515-.824-4.46-1.772v2.614c2.208,1.098,4.365,2.241,4.673,2.657.265.357.3,1.035.349,1.974.071,1.372.169,3.252,1.169,3.76,1.502.762,4.02-1.143,6.273-2.885-.015-.206-.03-.413-.045-.623-.228-3.232-.488-6.896-1.919-7.622-.874-.443-1.887.119-3.058.77-.94.522-1.911,1.062-2.943,1.126-.012.001-.025.001-.039.001M65.46,35.059l4.632-2.632v-3.174l-14.059-8.117.002,8.357,9.425,5.566ZM67.16,53.628l2.932,1.686v-19.278l-2.957,1.714.025,15.878ZM65.644,55.262l4.448,2.558v-1.353l-3.931-2.261-.027-17.032,3.958-2.294v-1.303l-4.641,2.636-10.36-6.15-.054-9.502-12.903-7.45L14.174,29.253v.069c2.224,1.092,4.027,1.879,4.455,1.86.866-.053,1.764-.553,2.632-1.035,1.24-.69,2.523-1.403,3.743-.783,1.8.913,2.063,4.628,2.317,8.22.003.047.007.093.01.14,2.142-1.647,3.989-2.945,5.303-2.278,1.455.738,1.53,3.243,1.515,5.788,1.089-.782,1.849-1.241,2.408-.958.798.405.847,1.218.883,1.811.03.494.063.735.233.814.272.126,1.129.542,2.166,1.049.906-.718,1.654-1.214,2.277-1.13.38.051.994.276,1.71.59v-.023s5.614,3.106,5.614,3.106c-.12,1.369.374,2.242,1.392,2.496.942.236,1.885-.215,2.285-1.091.41-.9.098-1.929-.752-2.485-.79-.516-1.83-.336-2.602.487l-5.931-3.229.006-5.181c-.31-.14-.331-.098-1.432-.678-.782-.439-1.304-.931-1.415-1.838-.023-.185-.212-.4-.384-.507-.691-.429-1.411-.808-2.104-1.232-.275-.17-.467-.172-.746.022-.76.526-1.778.398-2.417-.255-.637-.653-.743-1.705-.243-2.43.529-.765,1.517-1.076,2.328-.736.899.378,1.385,1.275,1.193,2.2-.027.13-.062.258-.096.405.668.384,1.301.814,1.987,1.127.769.35,1.238.865,1.309,1.715.028.331.225.52.512.665,1.024.518,1.552.759,2.026.993l.019-.011c4.337,2.255,8.675,4.504,13.02,6.746.268.137.359.271.338.587-.059.946.595,1.767,1.518,1.979.892.206,1.863-.272,2.222-1.091.394-.902.1-1.92-.713-2.472-.739-.504-1.818-.408-2.454.268-.225.238-.375.208-.622.08-4.186-2.179-8.378-4.348-12.569-6.518l2.64-1.499c.345.182.691.363,1.035.546.801.427,1.506.602,2.34.2.171-.082.458-.039.643.05.743.353,1.461.761,2.201,1.119.296.142.403.305.39.649-.033.935.633,1.734,1.54,1.921.906.187,1.861-.299,2.205-1.122.363-.869.088-1.882-.646-2.388-.814-.56-1.845-.484-2.529.186-.096.094-.186.194-.293.304-.693-.36-1.405-.664-2.048-1.078-.719-.463-1.414-.58-2.177-.176-.299.157-.559.077-.848-.073-.358-.187-.716-.372-1.074-.558l.008-.005c-.115-.057-.23-.114-.346-.171-.959-.474-1.912-.926-2.984-1.455-.174-.086-.317-.187-.43-.319-.092-.108-.164-.237-.213-.4-.211-.711-.318-1.546-.769-2.069-.441-.511-1.256-.704-1.909-1.031-1.894-.941-3.789-1.876-5.676-2.825-.248-.125-.402-.135-.627.078-.708.67-1.75.681-2.524.075-.68-.531-.9-1.555-.506-2.356.4-.817,1.359-1.259,2.214-1.024.949.262,1.558,1.11,1.44,2.078-.035.291.056.397.292.513,2.539,1.253,5.073,2.519,7.61,3.771.238.117.373.269.452.521.203.659.417,1.318.665,1.961.072.189.244.386.423.476,1.237.622,2.43,1.182,3.613,1.765l5.209-2.958,10.48,6.15-.002,17.031-10.685,6.002-10.418-6.148-.007-7.547c-.966-.474-2.519-1.235-3.868-1.894-.115.093-.23.186-.342.279-1.35,1.104-2.847,2.328-4.156,2.328-.286,0-.563-.059-.828-.19-1.089-.539-1.203-2.35-1.2-4.556-1.682,1.204-3.623,2.417-5.11,1.662-1.077-.546-1.387-2.622-1.596-5.203-2.413,1.856-4.855,3.587-6.669,2.665-1.377-.699-1.483-2.736-1.568-4.372-.032-.623-.072-1.398-.206-1.578-.221-.274-1.898-1.181-4.087-2.275v27.97l18.833,10.888.007-10.906,10.515-6.093,10.352,6.117.017,9.421,1.247-.797-.015-8.814,10.514-6.093ZM33.415,41.766v-.002c.02-2.382.043-5.082-1.111-5.667-.985-.501-2.965.997-4.909,2.499.178,2.346.44,4.682,1.234,5.085,1.228.623,3.174-.741,4.786-1.915M36.227,40.926c-.254-.107-1.319.655-2.085,1.213-.014,1.961.015,4.049.792,4.434,1.053.522,2.797-.904,4.198-2.05.027-.023.054-.045.082-.067-.895-.436-1.609-.782-1.848-.893-.584-.271-.621-.887-.654-1.432-.037-.615-.088-1.003-.485-1.205M44.239,45.365c-.077-.04-.21-.109-.425-.22l.007-.938c-.786-.359-1.444-.616-1.801-.664-.299-.041-.848.308-1.449.764,1.032.505,2.14,1.048,2.999,1.469.154.094.432.248.907.497.18.094.35.297.42.489.241.655.446,1.326.641,1.996.075.256.209.412.448.535,2.549,1.311,5.092,2.637,7.643,3.949.238.122.328.231.288.526-.137.978.466,1.847,1.422,2.129.863.253,1.842-.179,2.261-.999.412-.805.207-1.846-.472-2.396-.774-.628-1.83-.634-2.558.033-.232.212-.388.199-.637.068-1.895-.993-3.8-1.972-5.7-2.959-.655-.342-1.477-.55-1.916-1.075-.448-.537-.542-1.384-.744-2.107-.104-.37-.321-.576-.64-.739-.451-.233-.634-.327-.694-.358M70.092,61.539v-2.523l-4.446-2.599-9.515,5.514.013,7.661,13.948-8.053Z" fill="#006165"/>
      <path d="M122.93,64.732v-.21c0-.127.012-.253.035-.38.024-.127.062-.242.115-.345.054-.103.125-.187.215-.25s.205-.095.345-.095.255.028.345.085.16.14.21.25.085.243.105.4.034.338.04.545h-1.41ZM125.66,65.552v-.31c0-.413-.026-.788-.08-1.125-.053-.337-.153-.623-.3-.86-.146-.237-.348-.42-.605-.55-.256-.13-.585-.195-.985-.195-.466,0-.84.077-1.12.23s-.495.36-.645.62-.25.557-.3.89-.075.68-.075,1.04c0,.333.015.672.045,1.015s.112.653.245.93c.134.277.34.502.62.675s.67.26,1.17.26c.66,0,1.144-.168,1.45-.505.307-.337.474-.818.5-1.445h-1.24c-.04.34-.113.593-.22.76-.106.167-.276.25-.51.25-.126,0-.233-.035-.32-.105-.086-.07-.156-.163-.21-.28-.053-.117-.091-.25-.115-.4-.023-.15-.035-.305-.035-.465v-.43h2.73ZM120.945,64.591c0-.64-.161-1.147-.485-1.52-.323-.373-.805-.56-1.445-.56-.32,0-.613.043-.88.13-.266.087-.496.238-.69.455-.193.217-.343.507-.45.87-.106.363-.16.822-.16,1.375,0,.54.044.992.13,1.355.087.363.215.653.385.87s.384.372.64.465c.257.093.559.14.905.14.734,0,1.259-.19,1.575-.57.317-.38.475-.923.475-1.63h-1.32c0,.44-.053.76-.16.96-.106.2-.276.3-.51.3-.153,0-.278-.035-.375-.105-.096-.07-.171-.182-.225-.335-.053-.153-.09-.348-.11-.585s-.03-.522-.03-.855c0-.307.01-.577.03-.81s.057-.425.11-.575c.054-.15.132-.263.235-.34.104-.077.242-.115.415-.115.127,0,.232.032.315.095.084.063.147.147.19.25.044.103.074.22.09.35.017.13.025.258.025.385h1.32ZM111.962,68.032h1.38v-3.57c0-.593.244-.89.73-.89.207,0,.357.055.45.165.094.11.14.305.14.585v3.71h1.38v-3.99c0-.54-.118-.93-.355-1.17-.236-.24-.575-.36-1.015-.36-.3,0-.566.062-.8.185-.233.123-.423.318-.57.585h-.02v-.63h-1.32v5.38ZM108.433,64.732v-.21c0-.127.011-.253.034-.38.024-.127.062-.242.115-.345.054-.103.125-.187.215-.25.091-.063.205-.095.345-.095s.256.028.345.085c.09.057.161.14.211.25s.084.243.104.4c.021.157.034.338.04.545h-1.409ZM111.162,65.552v-.31c0-.413-.026-.788-.08-1.125-.053-.337-.153-.623-.3-.86-.146-.237-.348-.42-.605-.55-.256-.13-.585-.195-.985-.195-.466,0-.839.077-1.119.23s-.496.36-.646.62c-.149.26-.25.557-.3.89s-.075.68-.075,1.04c0,.333.015.672.045,1.015s.112.653.245.93c.134.277.341.502.621.675s.67.26,1.17.26c.66,0,1.143-.168,1.449-.505.307-.337.474-.818.5-1.445h-1.24c-.04.34-.113.593-.219.76-.107.167-.277.25-.511.25-.126,0-.233-.035-.319-.105-.087-.07-.157-.163-.211-.28-.053-.117-.091-.25-.115-.4-.023-.15-.034-.305-.034-.465v-.43h2.729ZM104.826,68.032h1.38v-5.38h-1.38v5.38ZM104.826,61.992h1.38v-1.18h-1.38v1.18ZM104.005,64.591c0-.64-.162-1.147-.485-1.52-.324-.373-.805-.56-1.445-.56-.32,0-.614.043-.88.13-.267.087-.497.238-.69.455-.194.217-.344.507-.45.87-.107.363-.16.822-.16,1.375,0,.54.043.992.13,1.355.086.363.215.653.385.87s.383.372.64.465c.256.093.558.14.905.14.733,0,1.258-.19,1.575-.57.316-.38.475-.923.475-1.63h-1.32c0,.44-.054.76-.16.96-.107.2-.277.3-.51.3-.154,0-.279-.035-.375-.105-.097-.07-.172-.182-.225-.335-.054-.153-.09-.348-.11-.585s-.03-.522-.03-.855c0-.307.01-.577.03-.81s.056-.425.11-.575c.053-.15.131-.263.235-.34.103-.077.241-.115.415-.115.126,0,.231.032.315.095.083.063.146.147.19.25.043.103.073.22.09.35.016.13.025.258.025.385h1.32ZM94.517,65.802v.29c0,.66.175,1.172.525,1.535s.931.545,1.745.545c.78,0,1.388-.177,1.825-.53.436-.353.655-.907.655-1.66,0-.22-.02-.42-.06-.6s-.112-.345-.215-.495c-.104-.15-.244-.29-.42-.42-.177-.13-.399-.255-.665-.375l-1.11-.48c-.307-.127-.507-.265-.6-.415-.094-.15-.14-.335-.14-.555,0-.107.011-.21.035-.31.023-.1.066-.188.13-.265.063-.077.148-.138.255-.185.106-.047.24-.07.4-.07.28,0,.48.092.6.275s.18.445.18.785h1.38v-.2c0-.34-.055-.632-.165-.875s-.264-.443-.46-.6c-.197-.157-.43-.27-.7-.34s-.565-.105-.885-.105c-.687,0-1.227.173-1.62.52-.394.347-.59.873-.59,1.58,0,.293.036.552.11.775.073.223.188.42.345.59.156.17.351.318.585.445.233.127.51.243.83.35.24.08.441.158.605.235.163.077.295.162.395.255s.171.198.215.315c.043.117.065.255.065.415,0,.3-.089.522-.265.665-.177.143-.375.215-.595.215-.194,0-.35-.027-.47-.08s-.217-.127-.29-.22c-.074-.093-.124-.208-.15-.345-.027-.137-.04-.288-.04-.455v-.21h-1.44ZM88.907,64.732v-.21c0-.127.011-.253.035-.38.023-.127.061-.242.115-.345.053-.103.125-.187.215-.25s.205-.095.345-.095.255.028.345.085.16.14.21.25.085.243.105.4.033.338.04.545h-1.41ZM91.637,65.552v-.31c0-.413-.027-.788-.08-1.125-.054-.337-.154-.623-.3-.86-.147-.237-.349-.42-.605-.55-.257-.13-.585-.195-.985-.195-.467,0-.84.077-1.12.23s-.495.36-.645.62-.25.557-.3.89-.075.68-.075,1.04c0,.333.015.672.045,1.015s.111.653.245.93c.133.277.34.502.62.675s.67.26,1.17.26c.66,0,1.143-.168,1.45-.505.306-.337.473-.818.5-1.445h-1.24c-.04.34-.114.593-.22.76-.107.167-.277.25-.51.25-.127,0-.234-.035-.32-.105-.087-.07-.157-.163-.21-.28-.054-.117-.092-.25-.115-.4-.024-.15-.035-.305-.035-.465v-.43h2.73ZM84.958,68.032h1.38v-4.44h.8v-.94h-.8v-.47c0-.153.04-.263.12-.33s.216-.1.41-.1h.13c.06,0,.106.003.14.01v-.98c-.254-.02-.5-.03-.74-.03-.22,0-.42.022-.6.065s-.332.115-.455.215c-.124.1-.219.233-.285.4-.067.167-.1.37-.1.61v.61h-.7v.94h.7v4.44ZM82.237,68.032h1.38v-5.38h-1.38v5.38ZM82.237,61.992h1.38v-1.18h-1.38v1.18ZM81.516,68.032v-1.18h-2.55v-5.96h-1.44v7.14h3.99Z" fill="#00549f"/>
      <path d="M133.91,56.693h1.38v-7.14h-1.38v7.14ZM131.552,55.063c0,.153-.026.282-.08.385-.053.103-.121.188-.205.255-.083.067-.175.115-.275.145s-.196.045-.29.045c-.186,0-.32-.073-.4-.22s-.12-.323-.12-.53c0-.24.06-.43.18-.57s.32-.24.6-.3c.087-.02.184-.052.29-.095.107-.043.207-.102.3-.175v1.06ZM130.272,52.963v-.15c0-.213.054-.383.16-.51.107-.127.267-.19.48-.19.234,0,.399.058.495.175.097.117.145.278.145.485,0,.18-.04.317-.12.41s-.223.167-.43.22l-.78.21c-.24.067-.445.143-.615.23s-.31.195-.42.325-.191.287-.245.47c-.053.183-.08.402-.08.655,0,.18.024.362.07.545.047.183.12.348.22.495s.234.267.4.36c.167.093.37.14.61.14.334,0,.605-.047.815-.14s.395-.28.555-.56h.02c.02.093.042.188.065.285.024.097.059.188.105.275h1.32c-.066-.16-.111-.31-.135-.45-.023-.14-.035-.337-.035-.59v-2.83c0-.24-.025-.462-.075-.665s-.145-.378-.285-.525-.338-.26-.595-.34c-.256-.08-.588-.12-.995-.12-.26,0-.505.028-.735.085s-.43.15-.6.28-.305.302-.405.515-.15.473-.15.78v.13h1.24ZM124.006,56.693h1.38v-3.57c0-.593.244-.89.73-.89.207,0,.357.055.45.165.094.11.14.305.14.585v3.71h1.38v-3.99c0-.54-.118-.93-.355-1.17-.236-.24-.575-.36-1.015-.36-.3,0-.566.062-.8.185-.233.123-.423.318-.57.585h-.02v-.63h-1.32v5.38ZM120.363,53.243c.014-.233.045-.433.095-.6s.124-.297.22-.39c.097-.093.232-.14.405-.14.28,0,.474.147.58.44.107.293.16.777.16,1.45s-.053,1.157-.16,1.45c-.106.293-.3.44-.58.44-.173,0-.308-.047-.405-.14-.096-.093-.17-.223-.22-.39s-.081-.367-.095-.6c-.013-.233-.02-.487-.02-.76s.007-.527.02-.76M119.063,55.243c.067.353.18.65.34.89s.377.418.65.535c.274.117.617.172,1.03.165.394,0,.725-.062.995-.185s.489-.303.655-.54c.167-.237.287-.532.36-.885.074-.353.11-.76.11-1.22,0-.467-.033-.878-.1-1.235-.066-.357-.18-.655-.34-.895s-.376-.418-.65-.535c-.273-.117-.616-.172-1.03-.165-.393,0-.725.062-.995.185s-.488.303-.655.54c-.166.237-.286.532-.36.885-.073.353-.11.76-.11,1.22,0,.473.034.887.1,1.24M116.736,56.693h1.38v-5.38h-1.38v5.38ZM116.736,50.653h1.38v-1.18h-1.38v1.18ZM113.899,51.313h-.7v.94h.7v3.08c0,.273.016.5.05.68.033.18.095.325.185.435s.218.188.385.235c.166.047.386.07.66.07.16,0,.311-.007.455-.02.143-.013.291-.027.445-.04v-.96c-.047.007-.097.012-.15.015-.054.003-.107.005-.16.005-.2,0-.332-.045-.395-.135-.064-.09-.095-.242-.095-.455v-2.91h.8v-.94h-.8v-1.54h-1.38v1.54ZM111.248,55.063c0,.153-.027.282-.08.385-.054.103-.122.188-.205.255-.084.067-.175.115-.275.145s-.197.045-.29.045c-.187,0-.32-.073-.4-.22s-.12-.323-.12-.53c0-.24.06-.43.18-.57s.32-.24.6-.3c.086-.02.183-.052.29-.095.106-.043.206-.102.3-.175v1.06ZM109.968,52.963v-.15c0-.213.053-.383.16-.51.106-.127.266-.19.48-.19.233,0,.398.058.495.175.096.117.145.278.145.485,0,.18-.04.317-.12.41s-.224.167-.43.22l-.78.21c-.24.067-.445.143-.615.23s-.31.195-.42.325-.192.287-.245.47c-.054.183-.08.402-.08.655,0,.18.023.362.07.545.046.183.12.348.22.495s.233.267.4.36c.166.093.37.14.61.14.333,0,.605-.047.815-.14s.395-.28.555-.56h.02c.02.093.041.188.065.285.023.097.058.188.105.275h1.32c-.067-.16-.112-.31-.135-.45-.024-.14-.035-.337-.035-.59v-2.83c0-.24-.025-.462-.075-.665s-.145-.378-.285-.525-.339-.26-.595-.34c-.257-.08-.589-.12-.995-.12-.26,0-.505.028-.735.085s-.43.15-.6.28-.305.302-.405.515-.15.473-.15.78v.13h1.24ZM105.892,51.313h-.7v.94h.7v3.08c0,.273.016.5.05.68.033.18.095.325.185.435s.218.188.385.235c.166.047.386.07.66.07.16,0,.311-.007.455-.02.143-.013.291-.027.445-.04v-.96c-.047.007-.097.012-.15.015-.054.003-.107.005-.16.005-.2,0-.332-.045-.395-.135-.064-.09-.095-.242-.095-.455v-2.91h.8v-.94h-.8v-1.54h-1.38v1.54ZM103.258,56.693h1.32v-5.38h-1.38v3.57c0,.593-.244.89-.73.89-.207,0-.357-.055-.45-.165-.094-.11-.14-.305-.14-.585v-3.71h-1.38v3.99c0,.54.118.93.355,1.17.236.24.575.36,1.015.36.3,0,.566-.062.8-.185.233-.123.423-.318.57-.585h.02v.63ZM96.956,52.678c.09-.297.288-.445.595-.445.3,0,.495.148.585.445s.135.738.135,1.325-.045,1.028-.135,1.325-.285.445-.585.445c-.307,0-.505-.148-.595-.445s-.135-.738-.135-1.325.045-1.028.135-1.325M95.441,58.453h1.38v-2.26h.02c.146.213.311.373.495.48.183.107.405.16.665.16.566,0,.983-.222,1.25-.665.266-.443.4-1.165.4-2.165s-.134-1.722-.4-2.165c-.267-.443-.684-.665-1.25-.665-.28,0-.515.055-.705.165s-.362.292-.515.545h-.02v-.57h-1.32v7.14ZM87.809,56.693h1.38v-3.54c0-.32.065-.553.195-.7s.305-.22.525-.22c.193,0,.331.06.415.18.083.12.125.293.125.52v3.76h1.38v-3.54c0-.32.065-.553.195-.7s.305-.22.525-.22c.193,0,.331.06.415.18.083.12.125.293.125.52v3.76h1.38v-3.91c0-.52-.109-.918-.325-1.195-.217-.277-.555-.415-1.015-.415-.327,0-.609.072-.845.215-.237.143-.409.358-.515.645h-.02c-.074-.28-.219-.493-.435-.64-.217-.147-.485-.22-.805-.22-.3,0-.559.053-.775.16-.217.107-.412.283-.585.53h-.02v-.55h-1.32v5.38ZM84.166,53.243c.013-.233.045-.433.095-.6s.123-.297.22-.39c.096-.093.231-.14.405-.14.28,0,.473.147.58.44.106.293.16.777.16,1.45s-.054,1.157-.16,1.45c-.107.293-.3.44-.58.44-.174,0-.309-.047-.405-.14-.097-.093-.17-.223-.22-.39s-.082-.367-.095-.6c-.014-.233-.02-.487-.02-.76s.006-.527.02-.76M82.866,55.243c.066.353.18.65.34.89s.376.418.65.535c.273.117.616.172,1.03.165.393,0,.725-.062.995-.185s.488-.303.655-.54c.166-.237.286-.532.36-.885.073-.353.11-.76.11-1.22,0-.467-.034-.878-.1-1.235-.067-.357-.18-.655-.34-.895s-.377-.418-.65-.535c-.274-.117-.617-.172-1.03-.165-.394,0-.725.062-.995.185s-.489.303-.655.54c-.167.237-.287.532-.36.885-.074.353-.11.76-.11,1.22,0,.473.033.887.1,1.24M82.016,51.963c0-.26-.018-.538-.055-.835s-.128-.573-.275-.83-.368-.468-.665-.635-.702-.25-1.215-.25c-.54,0-.97.092-1.29.275s-.565.438-.735.765-.28.718-.33,1.175-.075.955-.075,1.495.025,1.038.075,1.495.16.848.33,1.175.415.582.735.765.75.275,1.29.275c.473,0,.858-.077,1.155-.23s.527-.362.69-.625.275-.568.335-.915.09-.713.09-1.1h-1.44c0,.387-.023.698-.07.935s-.11.42-.19.55-.175.217-.285.26-.228.065-.355.065c-.153,0-.288-.032-.405-.095s-.213-.187-.29-.37-.133-.442-.17-.775-.055-.77-.055-1.31c0-.507.013-.935.04-1.285s.073-.633.14-.85.158-.373.275-.47.265-.145.445-.145c.327,0,.552.118.675.355s.185.615.185,1.135h1.44Z" fill="#00549f"/>
      <path d="M157.675,41.339c.09-.297.288-.445.595-.445.3,0,.495.148.585.445s.135.738.135,1.325-.045,1.028-.135,1.325-.285.445-.585.445c-.307,0-.505-.148-.595-.445s-.135-.738-.135-1.325.045-1.028.135-1.325M156.16,47.114h1.38v-2.26h.02c.146.213.311.373.495.48.183.107.405.16.665.16.566,0,.983-.222,1.25-.665.266-.443.4-1.165.4-2.165s-.134-1.722-.4-2.165c-.267-.443-.684-.665-1.25-.665-.28,0-.515.055-.705.165s-.362.292-.515.545h-.02v-.57h-1.32v7.14ZM153.777,45.354h1.38v-5.38h-1.38v5.38ZM153.777,39.314h1.38v-1.18h-1.38v1.18ZM148.698,45.354h1.38v-3.57c0-.593.243-.89.73-.89.206,0,.356.055.45.165.093.11.14.305.14.585v3.71h1.38v-3.99c0-.54-.119-.93-.355-1.17-.237-.24-.575-.36-1.015-.36-.607,0-1.044.23-1.31.69h-.02v-2.31h-1.38v7.14ZM143.967,43.594v.19c0,.26.03.495.09.705s.165.39.315.54.352.265.605.345.577.12.97.12c.287,0,.553-.035.8-.105s.458-.175.635-.315.315-.317.415-.53.15-.46.15-.74c0-.407-.09-.728-.27-.965s-.487-.428-.92-.575l-.83-.28c-.233-.073-.392-.163-.475-.27s-.125-.227-.125-.36c0-.193.065-.338.195-.435s.282-.145.455-.145c.227,0,.385.065.475.195s.135.335.135.615h1.24v-.22c0-.487-.15-.863-.45-1.13s-.763-.4-1.39-.4c-.353,0-.655.043-.905.13s-.455.203-.615.35-.277.318-.35.515-.11.405-.11.625c0,.38.097.692.29.935s.48.432.86.565l.97.35c.133.053.25.125.35.215s.15.222.15.395c0,.213-.063.373-.19.48s-.297.16-.51.16c-.233,0-.412-.072-.535-.215s-.185-.332-.185-.565v-.18h-1.24ZM140.67,45.354h1.38v-3.23c0-.18.03-.332.09-.455s.14-.223.24-.3.21-.132.33-.165.24-.05.36-.05c.073,0,.145.002.215.005s.142.008.215.015v-1.32c-.04-.007-.082-.012-.125-.015s-.085-.005-.125-.005c-.287,0-.53.078-.73.235s-.37.365-.51.625h-.02v-.72h-1.32v5.38ZM137.027,41.904c.013-.233.045-.433.095-.6s.123-.297.22-.39.232-.14.405-.14c.28,0,.473.147.58.44s.16.777.16,1.45-.053,1.157-.16,1.45-.3.44-.58.44c-.173,0-.308-.047-.405-.14s-.17-.223-.22-.39-.082-.367-.095-.6-.02-.487-.02-.76.007-.527.02-.76M135.727,43.904c.067.353.18.65.34.89s.377.418.65.535.617.172,1.03.165c.393,0,.725-.062.995-.185s.488-.303.655-.54.287-.532.36-.885.11-.76.11-1.22c0-.467-.033-.878-.1-1.235s-.18-.655-.34-.895-.377-.418-.65-.535-.617-.172-1.03-.165c-.393,0-.725.062-.995.185s-.488.303-.655.54-.287.532-.36.885-.11.76-.11,1.22c0,.473.033.887.1,1.24M131.056,43.594v.19c0,.26.03.495.09.705s.165.39.315.54.352.265.605.345c.254.08.577.12.97.12.287,0,.554-.035.8-.105.247-.07.459-.175.635-.315.177-.14.315-.317.415-.53s.15-.46.15-.74c0-.407-.09-.728-.27-.965s-.486-.428-.92-.575l-.83-.28c-.233-.073-.391-.163-.475-.27-.083-.107-.125-.227-.125-.36,0-.193.065-.338.195-.435s.282-.145.455-.145c.227,0,.385.065.475.195s.135.335.135.615h1.24v-.22c0-.487-.15-.863-.45-1.13s-.763-.4-1.39-.4c-.353,0-.655.043-.905.13s-.455.203-.615.35-.276.318-.35.515c-.073.197-.11.405-.11.625,0,.38.097.692.29.935.194.243.48.432.86.565l.97.35c.134.053.25.125.35.215s.15.222.15.395c0,.213-.063.373-.19.48-.126.107-.296.16-.51.16-.233,0-.411-.072-.535-.215-.123-.143-.185-.332-.185-.565v-.18h-1.24ZM126.492,43.594v.19c0,.26.03.495.09.705s.165.39.315.54.352.265.605.345c.254.08.577.12.97.12.287,0,.554-.035.8-.105.247-.07.459-.175.635-.315.177-.14.315-.317.415-.53s.15-.46.15-.74c0-.407-.09-.728-.27-.965s-.486-.428-.92-.575l-.83-.28c-.233-.073-.391-.163-.475-.27-.083-.107-.125-.227-.125-.36,0-.193.065-.338.195-.435s.282-.145.455-.145c.227,0,.385.065.475.195s.135.335.135.615h1.24v-.22c0-.487-.15-.863-.45-1.13s-.763-.4-1.39-.4c-.353,0-.655.043-.905.13s-.455.203-.615.35-.276.318-.35.515c-.073.197-.11.405-.11.625,0,.38.097.692.29.935.194.243.48.432.86.565l.97.35c.134.053.25.125.35.215s.15.222.15.395c0,.213-.063.373-.19.48-.126.107-.296.16-.51.16-.233,0-.411-.072-.535-.215-.123-.143-.185-.332-.185-.565v-.18h-1.24ZM123.186,42.054v-.21c0-.127.012-.253.035-.38.024-.127.062-.242.115-.345.054-.103.125-.187.215-.25s.205-.095.345-.095.255.028.345.085.16.14.21.25.085.243.105.4.034.338.04.545h-1.41ZM125.916,42.874v-.31c0-.413-.026-.788-.08-1.125-.053-.337-.153-.623-.3-.86-.146-.237-.348-.42-.605-.55-.256-.13-.585-.195-.985-.195-.466,0-.84.077-1.12.23s-.495.36-.645.62-.25.557-.3.89-.075.68-.075,1.04c0,.333.015.672.045,1.015s.112.653.245.93c.134.277.34.502.62.675s.67.26,1.17.26c.66,0,1.144-.168,1.45-.505.307-.337.474-.818.5-1.445h-1.24c-.04.34-.113.593-.22.76-.106.167-.276.25-.51.25-.126,0-.233-.035-.32-.105-.086-.07-.156-.163-.21-.28-.053-.117-.091-.25-.115-.4-.023-.15-.035-.305-.035-.465v-.43h2.73ZM119.238,45.354h1.38v-4.44h.8v-.94h-.8v-.47c0-.153.04-.263.12-.33s.216-.1.41-.1h.13c.06,0,.106.003.14.01v-.98c-.254-.02-.5-.03-.74-.03-.22,0-.42.022-.6.065s-.332.115-.455.215c-.124.1-.219.233-.285.4-.067.167-.1.37-.1.61v.61h-.7v.94h.7v4.44ZM115.273,41.904c.013-.233.045-.433.095-.6s.123-.297.22-.39c.096-.093.231-.14.405-.14.28,0,.473.147.58.44.106.293.16.777.16,1.45s-.054,1.157-.16,1.45c-.107.293-.3.44-.58.44-.174,0-.309-.047-.405-.14-.097-.093-.17-.223-.22-.39s-.082-.367-.095-.6c-.014-.233-.02-.487-.02-.76s.006-.527.02-.76M113.973,43.904c.066.353.18.65.34.89s.376.418.65.535c.273.117.616.172,1.03.165.393,0,.725-.062.995-.185s.488-.303.655-.54c.166-.237.286-.532.36-.885.073-.353.11-.76.11-1.22,0-.467-.034-.878-.1-1.235-.067-.357-.18-.655-.34-.895s-.377-.418-.65-.535c-.274-.117-.617-.172-1.03-.165-.394,0-.725.062-.995.185s-.489.303-.655.54c-.167.237-.287.532-.36.885-.074.353-.11.76-.11,1.22,0,.473.033.887.1,1.24M110.59,45.354h1.38v-3.23c0-.18.03-.332.09-.455s.14-.223.24-.3.21-.132.33-.165.24-.05.36-.05c.073,0,.145.002.215.005s.141.008.215.015v-1.32c-.04-.007-.082-.012-.125-.015-.044-.003-.085-.005-.125-.005-.287,0-.53.078-.73.235s-.37.365-.51.625h-.02v-.72h-1.32v5.38ZM105.379,45.354h1.44v-2.85h.77c.34,0,.65-.043.93-.13s.518-.217.715-.39c.196-.173.35-.395.46-.665s.165-.592.165-.965c0-.267-.034-.528-.1-.785-.067-.257-.177-.485-.33-.685-.154-.2-.355-.362-.605-.485s-.559-.185-.925-.185h-2.52v7.14ZM106.819,39.274h.6c.36,0,.616.093.77.28.153.187.23.46.23.82,0,.367-.089.637-.265.81-.177.173-.409.26-.695.26h-.64v-2.17ZM99.609,45.354h1.38v-3.23c0-.18.03-.332.09-.455s.14-.223.24-.3.21-.132.33-.165.24-.05.36-.05c.073,0,.145.002.215.005s.141.008.215.015v-1.32c-.04-.007-.082-.012-.125-.015-.044-.003-.085-.005-.125-.005-.287,0-.53.078-.73.235s-.37.365-.51.625h-.02v-.72h-1.32v5.38ZM95.966,41.904c.013-.233.045-.433.095-.6s.123-.297.22-.39c.096-.093.231-.14.405-.14.28,0,.473.147.58.44.106.293.16.777.16,1.45s-.054,1.157-.16,1.45c-.107.293-.3.44-.58.44-.174,0-.309-.047-.405-.14-.097-.093-.17-.223-.22-.39s-.082-.367-.095-.6c-.014-.233-.02-.487-.02-.76s.006-.527.02-.76M94.666,43.904c.066.353.18.65.34.89s.376.418.65.535c.273.117.616.172,1.03.165.393,0,.725-.062.995-.185s.488-.303.655-.54c.166-.237.286-.532.36-.885.073-.353.11-.76.11-1.22,0-.467-.034-.878-.1-1.235-.067-.357-.18-.655-.34-.895s-.377-.418-.65-.535c-.274-.117-.617-.172-1.03-.165-.394,0-.725.062-.995.185s-.489.303-.655.54c-.167.237-.287.532-.36.885-.074.353-.11.76-.11,1.22,0,.473.033.887.1,1.24M92.339,45.354h1.38v-5.38h-1.38v5.38ZM92.339,39.314h1.38v-1.18h-1.38v1.18ZM87.26,45.354h1.38v-3.57c0-.593.243-.89.73-.89.207,0,.357.055.45.165s.14.305.14.585v3.71h1.38v-3.99c0-.54-.118-.93-.355-1.17s-.575-.36-1.015-.36c-.3,0-.567.062-.8.185s-.423.318-.57.585h-.02v-.63h-1.32v5.38ZM84.962,45.354h1.32v-5.38h-1.38v3.57c0,.593-.243.89-.73.89-.207,0-.357-.055-.45-.165s-.14-.305-.14-.585v-3.71h-1.38v3.99c0,.54.118.93.355,1.17s.575.36,1.015.36c.3,0,.567-.062.8-.185s.423-.318.57-.585h.02v.63ZM79.776,38.214v5.1c0,.38-.042.662-.125.845s-.255.275-.515.275-.432-.092-.515-.275-.125-.465-.125-.845v-.22h-1.32v.31c0,.28.027.547.08.8s.152.475.295.665.337.342.58.455.555.17.935.17c.727,0,1.267-.167,1.62-.5s.53-.88.53-1.64v-5.14h-1.44Z" fill="#00549f"/>
    </g>
  </g>
</svg>